<?xml version="1.0" encoding="utf-8"?>
<!-- Generator: Adobe Illustrator 27.5.0, SVG Export Plug-In . SVG Version: 6.00 Build 0)  -->
<svg version="1.1" id="Layer_1" xmlns="http://www.w3.org/2000/svg" xmlns:xlink="http://www.w3.org/1999/xlink" x="0px" y="0px"
	 viewBox="0 0 144 144" style="enable-background:new 0 0 144 144;" xml:space="preserve">
<style type="text/css">
	.st0{fill:#FFFFFF;}
</style>
<g>
	<path class="st0" d="M71,103.1c0.7-0.3,1.4-0.9,2.2-1.6L99.1,77c0.6-0.6,1.1-1.2,1.3-1.8c0.2-0.6,0.4-1.2,0.4-1.7
		c0-0.5-0.1-1.1-0.4-1.7c-0.2-0.6-0.7-1.2-1.3-1.8L73.2,45.8c-0.9-0.8-1.6-1.4-2.3-1.8c-0.6-0.4-1.4-0.5-2.2-0.5
		c-1.2,0-2.1,0.4-2.8,1.2c-0.7,0.8-1.1,1.7-1.1,2.8v12.4h-1c-5.9,0-11,0.9-15.3,2.7c-4.3,1.8-7.8,4.4-10.5,7.9
		c-2.7,3.4-4.8,7.6-6.1,12.4c-1.3,4.8-2,10.3-2,16.4c0,1.4,0.3,2.5,1,3.3c0.7,0.8,1.5,1.1,2.3,1.1c0.7,0,1.4-0.1,2.1-0.4
		c0.7-0.3,1.4-1,1.9-2c1.9-3.6,4.1-6.4,6.6-8.4c2.5-2,5.4-3.5,8.6-4.3c3.3-0.8,7-1.2,11.3-1.2h1v12.5c0,1.1,0.4,2,1.1,2.8
		c0.7,0.7,1.6,1.1,2.8,1.1C69.5,103.6,70.2,103.4,71,103.1z M70.1,96.1V83.4c0-0.7-0.4-1.1-1.1-1.1h-4.4c-5.2,0-9.7,0.6-13.7,1.7
		c-3.9,1.1-7.2,2.7-9.8,4.8c-2.6,2.1-4.6,4.5-5.9,7.2c0,0.1-0.1,0.2-0.1,0.2c0,0.1-0.1,0.1-0.2,0.1c-0.2,0-0.3-0.1-0.3-0.4
		c0.1-3.1,0.5-6.1,1.2-9.1c0.7-3,1.7-5.8,3.1-8.5c1.4-2.6,3.2-5,5.5-7c2.3-2,5.1-3.6,8.4-4.8c3.3-1.1,7.2-1.7,11.7-1.7H69
		c0.7,0,1.1-0.4,1.1-1.1v-13c0-0.3,0.2-0.5,0.5-0.5c0.1,0,0.2,0,0.3,0.1c0.1,0.1,0.2,0.1,0.3,0.2l23.4,22.4c0.2,0.2,0.4,0.4,0.4,0.6
		c0,0.1,0,0.2-0.1,0.3c-0.1,0.1-0.1,0.2-0.3,0.3L71.1,96.3c-0.2,0.2-0.4,0.3-0.6,0.3C70.3,96.6,70.1,96.4,70.1,96.1z M87.3,103.1
		c0.7-0.3,1.4-0.9,2.2-1.6L115.4,77c0.6-0.6,1-1.2,1.3-1.8c0.2-0.6,0.4-1.2,0.4-1.7c0-0.5-0.1-1.1-0.3-1.7c-0.2-0.6-0.7-1.2-1.3-1.8
		L89.5,45.8c-0.9-0.8-1.6-1.4-2.3-1.8c-0.6-0.4-1.4-0.5-2.2-0.5c-1.1,0-2.1,0.4-2.8,1.2c-0.7,0.8-1.1,1.7-1.1,2.8v8.2l5.3,4.2v-9.2
		c0-0.3,0.2-0.5,0.5-0.5c0.1,0,0.2,0,0.3,0.1c0.1,0.1,0.2,0.1,0.3,0.2l23.4,22.4c0.2,0.2,0.4,0.4,0.4,0.6c0,0.1,0,0.2-0.1,0.3
		c-0.1,0.1-0.1,0.2-0.3,0.3L87.5,96.3c-0.2,0.2-0.4,0.3-0.6,0.3c-0.3,0-0.5-0.2-0.5-0.5v-8.9l-5.3,4.2v8.4c0,1.1,0.4,2,1.1,2.8
		c0.7,0.7,1.6,1.1,2.8,1.1C85.8,103.6,86.6,103.4,87.3,103.1z"/>
</g>
</svg>
