<?xml version="1.0" encoding="utf-8"?>
<!-- Generator: Adobe Illustrator 27.5.0, SVG Export Plug-In . SVG Version: 6.00 Build 0)  -->
<svg version="1.1" id="Layer_1" xmlns="http://www.w3.org/2000/svg" xmlns:xlink="http://www.w3.org/1999/xlink" x="0px" y="0px"
	 viewBox="0 0 144 144" style="enable-background:new 0 0 144 144;" xml:space="preserve">
<style type="text/css">
	.st0{fill:#FFFFFF;}
</style>
<g>
	<path class="st0" d="M70.9,103.1c0.7-0.3,1.4-0.9,2.2-1.6L99.1,77c0.6-0.5,1-1.1,1.3-1.7c0.3-0.6,0.4-1.2,0.4-1.8
		c0-0.6-0.1-1.2-0.4-1.8c-0.3-0.6-0.7-1.2-1.3-1.8L73.2,45.8c-0.9-0.8-1.6-1.4-2.3-1.8c-0.6-0.4-1.4-0.5-2.2-0.5
		c-1.2,0-2.1,0.4-2.8,1.2c-0.7,0.8-1.1,1.7-1.1,2.8v12.4h-1c-5.9,0-11,0.9-15.3,2.7c-4.3,1.8-7.8,4.4-10.5,7.9
		c-2.7,3.4-4.8,7.6-6.1,12.4c-1.3,4.8-2,10.3-2,16.4c0,1.4,0.3,2.5,1,3.3c0.7,0.8,1.5,1.1,2.3,1.1c0.7,0,1.4-0.1,2.1-0.4
		c0.7-0.3,1.4-1,1.9-2c1.9-3.6,4.1-6.4,6.6-8.4c2.5-2,5.4-3.5,8.6-4.3c3.3-0.8,7-1.2,11.3-1.2h1v12.5c0,1.1,0.4,2,1.1,2.8
		c0.7,0.7,1.6,1.1,2.8,1.1C69.5,103.6,70.2,103.4,70.9,103.1z M87.3,103.1c0.7-0.3,1.4-0.9,2.2-1.6l25.9-24.4c0.6-0.6,1-1.2,1.3-1.8
		c0.2-0.6,0.4-1.2,0.4-1.7c0-0.5-0.1-1.1-0.4-1.7c-0.2-0.6-0.7-1.2-1.3-1.8L89.5,45.8c-0.9-0.8-1.6-1.4-2.3-1.8
		c-0.6-0.4-1.4-0.5-2.2-0.5c-1.1,0-2.1,0.3-2.8,0.9c-0.7,0.6-1.1,1.3-1.1,2.1v1.1l21.1,19.3c1,0.9,1.8,2,2.4,3.1
		c0.5,1.1,0.8,2.3,0.8,3.6c0,1.2-0.3,2.4-0.8,3.6c-0.6,1.1-1.3,2.2-2.3,3.1L81.2,99.7v1.1c0,0.8,0.4,1.4,1.1,2
		c0.7,0.6,1.6,0.9,2.8,0.9C85.8,103.7,86.6,103.5,87.3,103.1z"/>
</g>
</svg>
