<?xml version="1.0" encoding="utf-8"?>
<!-- Generator: Adobe Illustrator 27.5.0, SVG Export Plug-In . SVG Version: 6.00 Build 0)  -->
<svg version="1.1" id="Layer_1" xmlns="http://www.w3.org/2000/svg" xmlns:xlink="http://www.w3.org/1999/xlink" x="0px" y="0px"
	 viewBox="0 0 144 144" style="enable-background:new 0 0 144 144;" xml:space="preserve">
<style type="text/css">
	.st0{fill:#007AFF;}
	.st1{fill:#FFFFFF;}
</style>
<g>
	<path class="st0" d="M91,114.7c5.3-2.3,10-5.5,14.1-9.5c4.1-4.1,7.2-8.7,9.5-14.1c2.3-5.3,3.5-11,3.5-17c0-6-1.2-11.7-3.5-17
		c-2.3-5.3-5.5-10-9.5-14.1c-4-4.1-8.7-7.2-14-9.5c-5.3-2.3-11-3.5-17-3.5c-6,0-11.7,1.2-17,3.5C51.7,35.8,47.1,39,43,43
		c-4.1,4.1-7.2,8.7-9.5,14.1c-2.3,5.3-3.5,11-3.5,17c0,6,1.2,11.7,3.5,17c2.3,5.3,5.5,10,9.5,14.1c4.1,4.1,8.7,7.2,14.1,9.5
		c5.3,2.3,11,3.5,17,3.5C80.1,118.1,85.7,117,91,114.7z"/>
	<path class="st1" d="M82.1,91.8c-0.5-0.4-0.7-0.9-0.7-1.4v-1.1L96,75.9c0.7-0.6,1.3-1.4,1.6-2.2c0.4-0.8,0.6-1.6,0.6-2.5
		c0-0.9-0.2-1.7-0.6-2.5c-0.4-0.8-0.9-1.5-1.6-2.2L81.4,53.1V52c0-0.5,0.3-1,0.8-1.5c0.5-0.4,1.2-0.6,2-0.6c0.6,0,1.1,0.1,1.5,0.4
		c0.4,0.3,0.9,0.7,1.6,1.3l18.4,17.2c0.4,0.4,0.7,0.8,0.9,1.3c0.2,0.4,0.2,0.8,0.2,1.3c0,0.4-0.1,0.8-0.2,1.2
		c-0.2,0.4-0.5,0.8-0.9,1.3L87.2,90.9c-0.6,0.5-1.1,0.9-1.6,1.2c-0.5,0.3-1,0.4-1.6,0.4C83.3,92.5,82.6,92.3,82.1,91.8z M70.4,91.7
		c-0.5-0.5-0.8-1.2-0.8-2v-8.9h-0.7c-4.5,0-8.3,0.7-11.3,2.1c-3,1.4-5.5,4-7.4,7.8c-0.4,0.7-0.9,1.2-1.4,1.4c-0.5,0.2-1,0.3-1.5,0.3
		c-0.6,0-1.2-0.3-1.6-0.8c-0.5-0.5-0.7-1.3-0.7-2.3c0-5.7,0.8-10.7,2.5-14.8c1.7-4.2,4.3-7.4,7.8-9.6c3.5-2.2,8.1-3.4,13.6-3.4h0.7
		v-8.9c0-0.7,0.3-1.4,0.8-2c0.5-0.6,1.2-0.9,2-0.9c0.5,0,1,0.1,1.5,0.4c0.4,0.3,1,0.7,1.6,1.2l18.3,17.2c0.5,0.5,0.8,0.9,0.9,1.3
		c0.2,0.4,0.2,0.8,0.2,1.2c0,0.4-0.1,0.8-0.2,1.2c-0.2,0.4-0.5,0.8-0.9,1.3L75.5,90.9c-0.5,0.5-1.1,0.9-1.6,1.2
		c-0.5,0.3-1,0.4-1.5,0.4C71.6,92.5,70.9,92.2,70.4,91.7z"/>
</g>
</svg>
