<?xml version="1.0" encoding="utf-8"?>
<!-- Generator: Adobe Illustrator 27.5.0, SVG Export Plug-In . SVG Version: 6.00 Build 0)  -->
<svg version="1.1" id="Layer_1" xmlns="http://www.w3.org/2000/svg" xmlns:xlink="http://www.w3.org/1999/xlink" x="0px" y="0px"
	 viewBox="0 0 144 144" style="enable-background:new 0 0 144 144;" xml:space="preserve">
<style type="text/css">
	.st0{fill:#007AFF;}
	.st1{fill:#FFFFFF;}
</style>
<g>
	<path class="st0" d="M91,114.6c5.3-2.3,10-5.5,14.1-9.5c4.1-4.1,7.2-8.7,9.5-14.1c2.3-5.3,3.5-11,3.5-17c0-6-1.2-11.7-3.5-17
		c-2.3-5.3-5.5-10-9.5-14.1s-8.7-7.2-14-9.5c-5.3-2.3-11-3.5-17-3.5c-6,0-11.7,1.2-17,3.5c-5.3,2.3-10,5.5-14.1,9.5
		c-4.1,4.1-7.2,8.7-9.5,14.1C31.2,62.4,30,68,30,74c0,6,1.2,11.7,3.5,17c2.3,5.3,5.5,10,9.5,14.1c4.1,4.1,8.7,7.2,14.1,9.5
		c5.3,2.3,11,3.5,17,3.5C80.1,118.1,85.7,116.9,91,114.6z M59.7,107.9c-4.4-1.9-8.3-4.5-11.7-7.9c-3.4-3.4-6-7.2-7.9-11.7
		c-1.9-4.4-2.8-9.2-2.8-14.3c0-5.1,0.9-9.9,2.8-14.3c1.9-4.4,4.5-8.3,7.9-11.7c3.4-3.4,7.3-6,11.7-7.9c4.4-1.9,9.2-2.8,14.3-2.8
		c5.1,0,9.9,0.9,14.3,2.8c4.4,1.9,8.3,4.5,11.7,7.9s6,7.3,7.8,11.7c1.9,4.4,2.8,9.2,2.8,14.3c0,5.1-0.9,9.9-2.8,14.3
		c-1.9,4.4-4.5,8.3-7.9,11.7c-3.4,3.4-7.2,6-11.7,7.9c-4.4,1.9-9.2,2.8-14.3,2.8C68.9,110.7,64.2,109.8,59.7,107.9z"/>
	<path class="st1" d="M85.4,91.4c0.5-0.2,1-0.6,1.5-1.1l17.8-16.8c0.4-0.4,0.7-0.8,0.9-1.2c0.2-0.4,0.2-0.8,0.2-1.2
		c0-0.4-0.1-0.8-0.2-1.2c-0.2-0.4-0.5-0.8-0.9-1.2L86.9,52.1c-0.6-0.6-1.1-1-1.5-1.2c-0.4-0.2-0.9-0.4-1.5-0.4
		c-0.8,0-1.5,0.2-1.9,0.6c-0.5,0.4-0.7,0.9-0.7,1.4v1.1l14.2,13c0.7,0.7,1.2,1.4,1.6,2.1c0.4,0.8,0.5,1.6,0.5,2.4
		c0,0.8-0.2,1.6-0.5,2.4c-0.4,0.8-0.9,1.5-1.6,2.1L81.2,88.8v1.1c0,0.5,0.2,0.9,0.7,1.3c0.5,0.4,1.1,0.6,1.9,0.6
		C84.4,91.8,84.9,91.7,85.4,91.4z M74,91.4c0.5-0.2,1-0.6,1.5-1.1l17.8-16.8c0.5-0.4,0.8-0.8,0.9-1.2c0.2-0.4,0.2-0.8,0.2-1.1
		c0-0.4-0.1-0.8-0.2-1.2c-0.2-0.4-0.5-0.8-0.9-1.2L75.5,52.1c-0.6-0.5-1.1-0.9-1.5-1.2c-0.4-0.3-0.9-0.4-1.5-0.4
		c-0.8,0-1.4,0.3-1.9,0.8c-0.5,0.5-0.7,1.2-0.7,1.9v8.6h-0.7c-5.4,0-9.8,1.1-13.2,3.3c-3.4,2.2-6,5.3-7.6,9.3
		c-1.6,4-2.5,8.8-2.5,14.4c0,0.9,0.2,1.7,0.7,2.2c0.4,0.5,1,0.8,1.6,0.8c0.5,0,1-0.1,1.5-0.3c0.5-0.2,0.9-0.7,1.3-1.4
		c1.9-3.7,4.3-6.2,7.3-7.6c2.9-1.4,6.6-2,11-2h0.7v8.6c0,0.8,0.2,1.4,0.7,1.9c0.5,0.5,1.1,0.8,1.9,0.8C73,91.8,73.5,91.7,74,91.4z"
		/>
</g>
</svg>
