<?xml version="1.0" encoding="utf-8"?>
<!-- Generator: Adobe Illustrator 27.5.0, SVG Export Plug-In . SVG Version: 6.00 Build 0)  -->
<svg version="1.1" id="Layer_1" xmlns="http://www.w3.org/2000/svg" xmlns:xlink="http://www.w3.org/1999/xlink" x="0px" y="0px"
	 viewBox="0 0 144 144" style="enable-background:new 0 0 144 144;" xml:space="preserve">
<style type="text/css">
	.st0{fill:#FFFFFF;}
</style>
<g>
	<path class="st0" d="M90,102.3c0.4-0.4,0.7-0.9,0.9-1.5c0.8-2.9,2-5.4,3.5-7.6c1.6-2.2,3.5-3.9,5.8-5.2c2.3-1.2,4.9-1.9,7.9-1.9
		c0.5,0,1,0,1.4,0c0.5,0,0.9,0,1.4,0c2.1,0,3.7-0.4,4.6-1.2c1-0.8,1.4-2.2,1.4-4V65.2c0-2.5-0.5-4.2-1.5-5.1c-1-1-2.6-1.5-4.9-1.5
		c-0.6,0-1,0-1.3,0c-0.3,0-0.5,0-0.5,0c-3,0-5.8,0.6-8.7,1.8s-5.3,3.1-7.4,5.8c-2.1,2.7-3.5,6.3-4.3,10.8h-0.4
		c-0.7-4.1-2.1-7.5-4.1-10.2C82,64,79.4,62,76.5,60.6c-3-1.4-6.2-2-9.6-2h-1V46.2c0-1.1-0.4-2-1.1-2.8c-0.7-0.8-1.7-1.2-2.8-1.2
		c-0.8,0-1.5,0.2-2.2,0.6c-0.6,0.4-1.4,1-2.3,1.8L31.6,68.7c-0.6,0.6-1,1.2-1.3,1.8c-0.2,0.6-0.4,1.2-0.4,1.8c0,0.5,0.1,1.1,0.4,1.7
		c0.2,0.6,0.7,1.2,1.3,1.8l25.9,24.4c0.8,0.7,1.5,1.3,2.2,1.6c0.7,0.3,1.5,0.5,2.3,0.5c1.1,0,2-0.4,2.8-1.1c0.7-0.7,1.1-1.6,1.1-2.8
		V86l1.2,0c3.1,0,5.8,0.5,8.2,1.4c2.3,1,4.3,2.5,6,4.7c1.7,2.2,3.1,5.1,4.3,8.7c0.2,0.7,0.5,1.2,0.9,1.5c0.5,0.3,1,0.5,1.8,0.5
		C89,102.8,89.6,102.6,90,102.3z"/>
</g>
</svg>
